HIERARCHY
ROOT Hips
{
 OFFSET 0.000000 0.000000 0.000000
 CHANNELS 6 Xposition Yposition Zposition Yrotation Xrotation Zrotation
 JOINT Chest
 {
  OFFSET 0.000000 12.953391 -0.028419
  CHANNELS 3 Yrotation Xrotation Zrotation
  JOINT Chest2
  {
   OFFSET 0.000000 10.280254 0.051622
   CHANNELS 3 Yrotation Xrotation Zrotation
   JOINT Chest3
   {
    OFFSET 0.000000 9.287180 0.000000
    CHANNELS 3 Yrotation Xrotation Zrotation
    JOINT Chest4
    {
     OFFSET 0.000000 9.287180 0.000000
     CHANNELS 3 Yrotation Xrotation Zrotation
     JOINT Neck
     {
      OFFSET 0.000000 13.296264 0.000000
      CHANNELS 3 Yrotation Xrotation Zrotation
      JOINT Head
      {
       OFFSET 0.000000 8.959264 0.099003
       CHANNELS 3 Yrotation Xrotation Zrotation
       End Site
       {
        OFFSET 0.000000 17.121337 0.039303
       }
      }
     }
     JOINT RightCollar
     {
      OFFSET -3.193511 7.451388 0.000000
      CHANNELS 3 Yrotation Xrotation Zrotation
      JOINT RightShoulder
      {
       OFFSET -15.792092 0.000000 0.000000
       CHANNELS 3 Yrotation Xrotation Zrotation
       JOINT RightElbow
       {
        OFFSET -31.151839 0.000000 0.000000
        CHANNELS 3 Yrotation Xrotation Zrotation
        JOINT RightWrist
        {
         OFFSET -25.536298 0.000000 0.002321
         CHANNELS 3 Yrotation Xrotation Zrotation
         End Site
         {
          OFFSET -19.133213 0.000000 0.000000
         }
        }
       }
      }
     }
     JOINT LeftCollar
     {
      OFFSET 3.193511 7.451388 0.000000
      CHANNELS 3 Yrotation Xrotation Zrotation
      JOINT LeftShoulder
      {
       OFFSET 15.792092 0.000000 0.000000
       CHANNELS 3 Yrotation Xrotation Zrotation
       JOINT LeftElbow
       {
        OFFSET 31.151839 0.000000 0.000000
        CHANNELS 3 Yrotation Xrotation Zrotation
        JOINT LeftWrist
        {
         OFFSET 25.536298 0.000000 0.002321
         CHANNELS 3 Yrotation Xrotation Zrotation
         End Site
         {
          OFFSET 19.133213 0.000000 0.000000
         }
        }
       }
      }
     }
    }
   }
  }
 }
 JOINT RightHip
 {
  OFFSET -10.745749 0.139252 0.014209
  CHANNELS 3 Yrotation Xrotation Zrotation
  JOINT RightKnee
  {
   OFFSET 0.000000 -43.743899 -0.006071
   CHANNELS 3 Yrotation Xrotation Zrotation
   JOINT RightAnkle
   {
    OFFSET 0.000000 -43.214199 0.089931
    CHANNELS 3 Yrotation Xrotation Zrotation
    JOINT RightToe
    {
     OFFSET 0.000000 -9.699830 19.151588
     CHANNELS 3 Yrotation Xrotation Zrotation
     End Site
     {
      OFFSET 0.000000 -1.292898 4.893873
     }
    }
   }
  }
 }
 JOINT LeftHip
 {
  OFFSET 10.745749 0.139252 0.014209
  CHANNELS 3 Yrotation Xrotation Zrotation
  JOINT LeftKnee
  {
   OFFSET 0.000000 -43.743899 -0.006071
   CHANNELS 3 Yrotation Xrotation Zrotation
   JOINT LeftAnkle
   {
    OFFSET 0.000000 -43.214199 0.089931
    CHANNELS 3 Yrotation Xrotation Zrotation
    JOINT LeftToe
    {
     OFFSET 0.000000 -9.699830 19.151588
     CHANNELS 3 Yrotation Xrotation Zrotation
     End Site
     {
      OFFSET 0.000000 -1.292898 4.893873
     }
    }
   }
  }
 }
}
MOTION
Frames: 12
Frame Time: 0.016667
-91.457684 97.985411 52.635010 89.301227 -17.878480 2.783413 -2.957960 12.347157 2.227634 -1.366364 5.473428 1.063255 -1.366364 5.473428 1.063255 -1.033544 4.102736 0.809109 -10.945955 23.840121 5.762456 -21.058285 9.798799 12.977516 7.385915 8.007078 7.094727 4.157727 -24.211828 71.176664 2.323662 4.952769 -8.371081 5.455264 20.317297 -49.686988 -3.229691 5.959162 -15.678373 -5.964030 -9.898446 -73.750941 -8.524906 3.789025 1.525044 6.955258 11.609651 7.593886 -7.536905 20.198209 1.726271 -1.843276 3.940223 -0.293771 -17.266650 -9.135270 -3.726372 0.000000 0.000000 0.000000 21.397199 2.546720 12.631969 -2.098766 13.251221 -0.744818 -2.222791 0.392882 -6.123612 0.000000 -0.000000 0.000000
-91.529859 97.986421 52.494865 89.463913 -17.779389 2.751800 -3.000314 12.268331 2.193549 -1.383878 5.438407 1.048884 -1.383874 5.438406 1.048881 -1.046486 4.076471 0.798419 -10.932001 23.858866 5.771289 -21.032932 9.832351 12.987014 7.347327 8.038762 7.237486 4.159922 -24.103277 71.115806 2.193452 4.979768 -8.347288 5.607936 20.312261 -49.707707 -3.285130 6.016170 -15.480572 -5.843388 -9.965917 -73.888001 -8.565071 3.646876 1.529501 7.012624 11.596990 7.608970 -7.839476 20.105183 1.517423 -2.089368 3.889717 -0.208004 -16.840958 -9.053117 -3.714262 0.000000 0.000000 0.000000 21.133216 2.108569 12.656221 -1.698389 13.861909 -0.973159 -2.524762 0.079802 -5.914307 0.000000 0.000000 0.000000
-91.602033 97.987430 52.354719 89.626452 -17.680213 2.720500 -3.042682 12.189560 2.159390 -1.401422 5.403421 1.034467 -1.401420 5.403420 1.034465 -1.059458 4.050235 0.787699 -10.918012 23.877587 5.780161 -21.007540 9.865868 12.996581 7.308747 8.070548 7.380205 4.161961 -23.994746 71.054976 2.063266 5.006934 -8.323573 5.760520 20.307250 -49.728622 -3.340527 6.073353 -15.282857 -5.722451 -10.032990 -74.025210 -8.605262 3.504738 1.534091 7.069967 11.584308 7.624285 -8.141798 20.011622 1.309427 -2.335637 3.840465 -0.121880 -16.415290 -8.971164 -3.701715 0.000000 0.000000 0.000000 20.869554 1.670211 12.681766 -1.298466 14.474751 -1.195130 -2.828273 -0.232348 -5.704192 0.000000 -0.000000 0.000000
-91.667135 97.991674 52.204750 89.788960 -17.593690 2.684769 -3.077539 12.122468 2.130908 -1.415853 5.373629 1.022413 -1.415853 5.373629 1.022413 -1.070126 4.027894 0.778733 -10.908259 23.886002 5.791370 -20.991595 9.881831 13.012962 7.280135 8.107383 7.514157 4.162040 -23.893093 70.993239 1.957712 4.983187 -8.311269 5.890418 20.299815 -49.730142 -3.392211 6.131414 -15.099837 -5.631144 -10.103159 -74.145527 -8.640818 3.362590 1.538402 7.126467 11.594703 7.632874 -8.402728 19.922050 1.125040 -2.547115 3.796993 -0.048302 -16.069486 -8.885725 -3.685524 0.000000 0.000000 0.000000 20.675125 1.247492 12.723924 -0.702194 15.119001 -1.341339 -3.025498 -0.591497 -5.611662 0.000000 -0.000000 0.000000
-91.720172 98.000518 52.042373 89.956706 -17.528452 2.639970 -3.103881 12.073896 2.111872 -1.426833 5.352046 1.014408 -1.426834 5.352045 1.014408 -1.078256 4.011706 0.772785 -10.906829 23.877449 5.806810 -20.993699 9.869235 13.041534 7.266667 8.153931 7.635637 4.144243 -23.805437 70.940606 1.897797 4.887041 -8.317595 5.989007 20.294574 -49.700783 -3.438847 6.193819 -14.939848 -5.597799 -10.179789 -74.236406 -8.665285 3.213039 1.542060 7.179713 11.645502 7.625727 -8.613973 19.841692 0.973236 -2.698065 3.761048 0.009249 -15.844808 -8.796329 -3.664857 0.000000 0.000000 0.000000 20.578534 0.841806 12.794659 0.190272 15.817803 -1.380203 -3.123405 -1.058354 -5.794076 -0.000000 -0.000000 -0.000000
-91.766137 98.012595 51.870172 90.124471 -17.475813 2.590603 -3.122717 12.036980 2.098514 -1.434686 5.335641 1.008777 -1.434686 5.335639 1.008778 -1.084069 3.999402 0.768598 -10.909730 23.858603 5.824507 -21.005406 9.839116 13.076801 7.263347 8.205277 7.748487 4.124442 -23.724606 70.887197 1.862504 4.739779 -8.334809 6.064976 20.286925 -49.651784 -3.481605 6.256884 -14.794413 -5.594236 -10.259849 -74.310339 -8.685114 3.063472 1.545418 7.232253 11.719372 7.611833 -8.783976 19.765844 0.844405 -2.814165 3.729999 0.053930 -15.699895 -8.703400 -3.640786 0.000000 0.000000 0.000000 20.550513 0.451755 12.879851 1.284680 16.546987 -1.326632 -3.114662 -1.566255 -6.106499 -0.000000 -0.000000 -0.000000
-91.812932 98.027040 51.686074 90.276647 -17.422569 2.545604 -3.129554 12.002786 2.085253 -1.437250 5.320503 1.002891 -1.437250 5.320503 1.002891 -1.085918 3.988060 0.764176 -10.909116 23.839180 5.840967 -21.010624 9.806992 13.109199 7.264887 8.251935 7.855314 4.148354 -23.635874 70.802407 1.813305 4.554473 -8.351382 6.121756 20.260586 -49.597572 -3.520590 6.310508 -14.652892 -5.565595 -10.337172 -74.387970 -8.714995 2.936040 1.549101 7.290685 11.787421 7.611269 -8.896758 19.684346 0.733179 -2.937559 3.701616 0.082687 -15.590603 -8.604663 -3.612959 0.000000 0.000000 0.000000 20.573242 0.089136 12.955178 2.487872 17.263902 -1.179271 -2.870579 -1.982747 -6.215783 -0.000000 0.000000 0.000000
-91.865156 98.044334 51.489966 90.401860 -17.365135 2.510922 -3.119122 11.972255 2.070508 -1.432160 5.307082 0.995923 -1.432161 5.307083 0.995923 -1.082025 3.978020 0.758881 -10.901482 23.819759 5.856975 -21.003188 9.773399 13.139262 7.272785 8.290077 7.955774 4.246358 -23.529583 70.667121 1.742377 4.323040 -8.364770 6.169896 20.193482 -49.533893 -3.555486 6.343648 -14.512222 -5.482964 -10.412438 -74.480757 -8.763049 2.841382 1.552503 7.359081 11.847337 7.629010 -8.915676 19.590853 0.650563 -3.096918 3.677599 0.086148 -15.512788 -8.497513 -3.582694 0.000000 0.000000 0.000000 20.657607 -0.240775 13.010193 3.869993 17.954626 -0.925412 -2.302672 -2.256589 -5.958204 -0.000000 0.000000 -0.000000
-91.918211 98.063995 51.281960 90.511512 -17.307178 2.480558 -3.096696 11.944445 2.055843 -1.421780 5.294919 0.988696 -1.421782 5.294919 0.988697 -1.074167 3.968930 0.753349 -10.890338 23.799730 5.871732 -20.989280 9.737733 13.166447 7.285513 8.323449 8.050209 4.387565 -23.414749 70.500908 1.657308 4.053657 -8.376673 6.198816 20.107812 -49.464857 -3.586712 6.367231 -14.375471 -5.375198 -10.484654 -74.577437 -8.821154 2.768858 1.555999 7.433242 11.901415 7.660223 -8.877539 19.491862 0.585047 -3.263497 3.656205 0.073557 -15.470462 -8.384482 -3.548805 0.000000 -0.000000 0.000000 20.793013 -0.543181 13.054810 5.365725 18.624052 -0.573064 -1.496344 -2.469090 -5.501308 -0.000000 -0.000000 0.000000
-91.966211 98.083716 51.060326 90.624116 -17.246374 2.445604 -3.073612 11.907614 2.040346 -1.411058 5.278753 0.981032 -1.411058 5.278753 0.981032 -1.066042 3.956839 0.747476 -10.878285 23.787033 5.879439 -20.971180 9.713801 13.179667 7.293145 8.354036 8.142203 4.525988 -23.304823 70.331064 1.542618 3.783932 -8.381899 6.180395 20.053694 -49.417468 -3.615493 6.404163 -14.241216 -5.274092 -10.545151 -74.664548 -8.879641 2.708708 1.561719 7.507203 11.927673 7.710209 -8.876422 19.396409 0.497899 -3.393380 3.630222 0.069919 -15.431764 -8.271126 -3.507030 0.000000 0.000000 0.000000 20.929668 -0.821891 13.096038 6.674317 19.260696 -0.165836 -0.584679 -2.687041 -5.004232 0.000000 0.000000 0.000000
-92.005839 98.103557 50.824316 90.740935 -17.181708 2.405092 -3.053963 11.855700 2.023154 -1.401766 5.255879 0.972624 -1.401765 5.255879 0.972623 -1.058974 3.939716 0.741044 -10.864870 23.786810 5.875456 -20.946309 9.709913 13.169691 7.291315 8.380560 8.233572 4.654281 -23.205994 70.155536 1.388860 3.500982 -8.373484 6.108392 20.041343 -49.325222 -3.641356 6.467404 -14.108649 -5.186818 -10.588928 -74.740483 -8.940204 2.662135 1.570730 7.577021 11.908580 7.787967 -8.966929 19.310575 0.364197 -3.455311 3.591944 0.087864 -15.376360 -8.157337 -3.457569 0.000000 0.000000 0.000000 21.062920 -1.079459 13.127049 7.712347 19.861172 0.298310 0.488188 -2.919164 -4.520965 0.000000 0.000000 0.000000
-92.040412 98.123458 50.574679 90.860672 -17.114160 2.360030 -3.033680 11.794770 2.005048 -1.392147 5.229004 0.963747 -1.392148 5.229004 0.963747 -1.051654 3.919595 0.734253 -10.850438 23.793954 5.864526 -20.917040 9.717804 13.145896 7.284263 8.404382 8.322452 4.780100 -23.112122 69.976304 1.205184 3.218087 -8.357905 5.989146 20.061002 -49.254888 -3.664688 6.543979 -13.978503 -5.106333 -10.621154 -74.806658 -9.001174 2.627939 1.581924 7.646249 11.861668 7.884305 -9.094318 19.228123 0.209350 -3.480667 3.548848 0.114895 -15.324562 -8.043251 -3.400212 0.000000 0.000000 0.000000 21.197477 -1.313289 13.154889 8.560538 20.429678 0.804220 1.668359 -3.152053 -3.999749 0.000000 0.000000 0.000000
